<?xml version="1.0" encoding="utf-8"?>
<!-- Generator: Adobe Illustrator 21.1.0, SVG Export Plug-In . SVG Version: 6.00 Build 0)  -->
<svg version="1.1" id="Layer_1" xmlns="http://www.w3.org/2000/svg" xmlns:xlink="http://www.w3.org/1999/xlink" x="0px" y="0px"
	 viewBox="0 0 841.9 595.3" style="enable-background:new 0 0 841.9 595.3;" xml:space="preserve">
<style type="text/css">
	.st0{fill:none;stroke:#000000;stroke-miterlimit:10;}
	.st1{fill:none;stroke:url(#SVGID_1_);stroke-width:6;stroke-linecap:round;stroke-linejoin:round;stroke-miterlimit:10;}
</style>
<g>
	<line class="st0" x1="19.7" y1="47.4" x2="821.4" y2="47.4"/>
	<line class="st0" x1="19.7" y1="72.4" x2="821.4" y2="72.4"/>
	<line class="st0" x1="19.7" y1="97.4" x2="821.4" y2="97.4"/>
	<line class="st0" x1="19.7" y1="122.4" x2="821.4" y2="122.4"/>
	<line class="st0" x1="19.7" y1="147.4" x2="821.4" y2="147.4"/>
	<line class="st0" x1="19.7" y1="172.4" x2="821.4" y2="172.4"/>
	<line class="st0" x1="19.7" y1="197.4" x2="821.4" y2="197.4"/>
	<line class="st0" x1="19.7" y1="222.4" x2="821.4" y2="222.4"/>
	<line class="st0" x1="19.7" y1="247.4" x2="821.4" y2="247.4"/>
	<line class="st0" x1="19.7" y1="272.4" x2="821.4" y2="272.4"/>
	<line class="st0" x1="19.7" y1="297.4" x2="821.4" y2="297.4"/>
	<line class="st0" x1="19.7" y1="322.4" x2="821.4" y2="322.4"/>
	<line class="st0" x1="19.7" y1="347.4" x2="821.4" y2="347.4"/>
	<line class="st0" x1="19.7" y1="372.4" x2="821.4" y2="372.4"/>
	<line class="st0" x1="19.7" y1="397.4" x2="821.4" y2="397.4"/>
	<line class="st0" x1="19.7" y1="422.4" x2="821.4" y2="422.4"/>
	<line class="st0" x1="19.7" y1="447.4" x2="821.4" y2="447.4"/>
	<line class="st0" x1="19.7" y1="472.4" x2="821.4" y2="472.4"/>
	<line class="st0" x1="19.7" y1="497.4" x2="821.4" y2="497.4"/>
	<line class="st0" x1="19.7" y1="522.4" x2="821.4" y2="522.4"/>
	<line class="st0" x1="19.7" y1="547.4" x2="821.4" y2="547.4"/>
	<line class="st0" x1="570.5" y1="22.4" x2="570.5" y2="572.4"/>
	<line class="st0" x1="545.5" y1="22.4" x2="545.5" y2="572.4"/>
	<line class="st0" x1="520.5" y1="22.4" x2="520.5" y2="572.4"/>
	<line class="st0" x1="495.5" y1="22.4" x2="495.5" y2="572.4"/>
	<line class="st0" x1="470.5" y1="22.4" x2="470.5" y2="572.4"/>
	<line class="st0" x1="445.5" y1="22.4" x2="445.5" y2="572.4"/>
	<line class="st0" x1="420.5" y1="22.4" x2="420.5" y2="572.4"/>
	<line class="st0" x1="395.5" y1="22.4" x2="395.5" y2="572.4"/>
	<line class="st0" x1="370.5" y1="22.4" x2="370.5" y2="572.4"/>
	<line class="st0" x1="345.5" y1="22.4" x2="345.5" y2="572.4"/>
	<line class="st0" x1="795.5" y1="22.4" x2="795.5" y2="572.4"/>
	<line class="st0" x1="770.5" y1="22.4" x2="770.5" y2="572.4"/>
	<line class="st0" x1="745.5" y1="22.4" x2="745.5" y2="572.4"/>
	<line class="st0" x1="720.5" y1="22.4" x2="720.5" y2="572.4"/>
	<line class="st0" x1="695.5" y1="22.4" x2="695.5" y2="572.4"/>
	<line class="st0" x1="670.5" y1="22.4" x2="670.5" y2="572.4"/>
	<line class="st0" x1="645.5" y1="22.4" x2="645.5" y2="572.4"/>
	<line class="st0" x1="620.5" y1="22.4" x2="620.5" y2="572.4"/>
	<line class="st0" x1="595.5" y1="22.4" x2="595.5" y2="572.4"/>
	<line class="st0" x1="320.5" y1="22.4" x2="320.5" y2="572.4"/>
	<line class="st0" x1="295.5" y1="22.4" x2="295.5" y2="572.4"/>
	<line class="st0" x1="270.5" y1="22.4" x2="270.5" y2="572.4"/>
	<line class="st0" x1="245.5" y1="22.4" x2="245.5" y2="572.4"/>
	<line class="st0" x1="220.5" y1="22.4" x2="220.5" y2="572.4"/>
	<line class="st0" x1="195.5" y1="22.4" x2="195.5" y2="572.4"/>
	<line class="st0" x1="170.5" y1="22.4" x2="170.5" y2="572.4"/>
	<line class="st0" x1="145.5" y1="22.4" x2="145.5" y2="572.4"/>
	<line class="st0" x1="120.5" y1="22.4" x2="120.5" y2="572.4"/>
	<line class="st0" x1="95.5" y1="22.4" x2="95.5" y2="572.4"/>
	<line class="st0" x1="70.5" y1="22.4" x2="70.5" y2="572.4"/>
	<line class="st0" x1="45.5" y1="22.4" x2="45.5" y2="572.4"/>
</g>
</svg>
