<?xml version="1.0" encoding="utf-8"?>
<!-- Generator: Adobe Illustrator 21.0.0, SVG Export Plug-In . SVG Version: 6.00 Build 0)  -->
<svg version="1.1" id="Capa_1" xmlns="http://www.w3.org/2000/svg" xmlns:xlink="http://www.w3.org/1999/xlink" x="0px" y="0px"
	 viewBox="0 0 48 48" style="enable-background:new 0 0 48 48;" xml:space="preserve">
<style type="text/css">
	.st0{fill:none;stroke:#8CC63F;stroke-width:2;stroke-miterlimit:10;}
	.st1{fill:none;stroke:#8CC63F;stroke-width:2.21;stroke-miterlimit:10;}
</style>
<title>Mesa de trabajo 4</title>
<path class="st0" d="M38,5.1c-3.8-1-6.8,6.3-6.8,6.3"/>
<path class="st0" d="M38,5.1c-3.8-1-6.8,6.3-6.8,6.3"/>
<path class="st0" d="M30.5,11.4c0,0,1.2-4-1.5-5.3"/>
<path class="st1" d="M16.1,42.7c-2.8-1.3-1.5-5-1.5-5l6.5-20.8c1.4-4,4-5.4,6.1-5.9c0,0,4.6-0.6,6.3,3c1,2,1.6,4.9-0.7,8.5l-12,18.2
	C20.9,40.7,18.9,44,16.1,42.7"/>
</svg>
