<svg id="Capa_1" data-name="Capa 1" xmlns="http://www.w3.org/2000/svg" viewBox="0 0 48 48"><defs><style>.cls-1{fill:none;stroke:#000;stroke-miterlimit:10;stroke-width:2.21px;}</style></defs><title>Mesa de trabajo 5</title><path class="cls-1" d="M11,40.43s-3,.1-3.4-2c0,0-.22-2.71,3.18-2.13l5.65-6.92-1.8-1.47a1.34,1.34,0,0,1-.07-2l2.71-3.31a9.21,9.21,0,0,0,2.15-5S19.48,13,22,9.89c0,0,6-9.4,14.79-2.21"/><path class="cls-1" d="M9.75,39.41s.49,2.93,2.65,2.93c0,0,2.7-.32,1.45-3.55l5.66-6.92,1.8,1.47a1.34,1.34,0,0,0,2-.33L26,29.72a9.22,9.22,0,0,1,4.45-3.09s4.53-1,7.06-4.08c0,0,8-7.75-.77-14.94"/></svg>