<svg id="Capa_1" data-name="Capa 1" xmlns="http://www.w3.org/2000/svg" viewBox="0 0 48 48"><defs><style>.cls-1,.cls-2{fill:none;stroke:#fff;stroke-miterlimit:10;}.cls-1{stroke-width:2px;}.cls-2{stroke-width:1.76px;}</style></defs><title>Mesa de trabajo 29 copia</title><rect width="48" height="48"/><path class="cls-1" d="M42.58,24c0,9-6.57,14.67-14.67,14.67S13.25,33,13.25,24Z"/><path class="cls-2" d="M31.33,20.28s3.84-4.9-2.24-7.16c0,0-4.73-1.87-1.88-6"/><path class="cls-2" d="M25.07,21.64s3.84-4.9-2.25-7.16c0,0-4.73-1.87-1.88-6"/><path class="cls-1" d="M14.7,31,9.39,31A3.13,3.13,0,0,1,6,27.63v-.25A3.17,3.17,0,0,1,9.47,24H13"/><line class="cls-1" x1="16" y1="40" x2="40" y2="40"/></svg>