<?xml version="1.0" encoding="utf-8"?>
<!-- Generator: Adobe Illustrator 21.0.0, SVG Export Plug-In . SVG Version: 6.00 Build 0)  -->
<svg version="1.1" id="Capa_1" xmlns="http://www.w3.org/2000/svg" xmlns:xlink="http://www.w3.org/1999/xlink" x="0px" y="0px"
	 viewBox="0 0 48 48" style="enable-background:new 0 0 48 48;" xml:space="preserve">
<style type="text/css">
	.st0{fill:none;stroke:#FFFFFF;stroke-width:2;stroke-miterlimit:10;}
	.st1{fill:none;stroke:#FFFFFF;stroke-width:1.76;stroke-miterlimit:10;}
</style>
<title>Mesa de trabajo 19</title>
<path class="st0" d="M39.6,24c0,9-6.6,14.7-14.7,14.7S10.2,33,10.2,24H39.6z"/>
<polyline class="st0" points="19,38.4 16.8,42 25,42 "/>
<polyline class="st0" points="30.9,38.4 33,42 25,42 "/>
<path class="st1" d="M25.3,20.3c0,0,3.8-4.9-2.2-7.2c0,0-4.7-1.9-1.9-6"/>
<path class="st1" d="M19.1,21.6c0,0,3.8-4.9-2.2-7.2c0,0-4.7-1.9-1.9-6"/>
<path class="st1" d="M31.1,18.9c0,0,3.9-4.9-2.2-7.2c0,0-4.7-1.9-1.9-6"/>
</svg>
