<svg id="Capa_1" data-name="Capa 1" xmlns="http://www.w3.org/2000/svg" viewBox="0 0 48 48"><defs><style>.cls-1,.cls-2{fill:none;stroke:#000;stroke-miterlimit:10;}.cls-1{stroke-width:2px;}.cls-2{stroke-width:1.76px;}</style></defs><title>Mesa de trabajo 19</title><path class="cls-1" d="M39.58,24c0,9-6.57,14.67-14.67,14.67S10.25,33,10.25,24Z"/><polyline class="cls-1" points="19 38.42 16.83 42 25 42"/><polyline class="cls-1" points="30.92 38.42 33 42 25 42"/><path class="cls-2" d="M25.33,20.28s3.84-4.9-2.24-7.16c0,0-4.73-1.87-1.88-6"/><path class="cls-2" d="M19.07,21.64s3.84-4.9-2.25-7.16c0,0-4.73-1.87-1.88-6"/><path class="cls-2" d="M31.13,18.88S35,14,28.88,11.71c0,0-4.73-1.87-1.88-6"/></svg>