<svg id="Capa_1" data-name="Capa 1" xmlns="http://www.w3.org/2000/svg" viewBox="0 0 48 48"><defs><style>.cls-1{fill:none;stroke:#000;stroke-miterlimit:10;stroke-width:2px;}</style></defs><title>Mesa de trabajo 28</title><path class="cls-1" d="M23.94,18.09c-1.72-3.81-4.74-4.26-4.74-4.26l-3.46-.33A9.34,9.34,0,0,1,12.68,12a4.81,4.81,0,0,0-2-.72L8.5,11.23l2.28,5s.46,1.3,2.61,1.3"/><path class="cls-1" d="M32.71,26.43c-.52-2.81-4.89-4-4.89-4l-9.46-.46s.52,4.24,4.5,4.37"/><path class="cls-1" d="M28.4,22.12c-.52-2.81-4.89-4-4.89-4L14,17.62s.52,4.24,4.5,4.37"/><path class="cls-1" d="M41.32,35c-.52-2.81-4.89-4-4.89-4L27,30.54s.52,4.24,4.5,4.37Z"/><path class="cls-1" d="M37,30.74c-.52-2.81-4.89-4-4.89-4l-9.46-.46s.52,4.24,4.5,4.37"/><path class="cls-1" d="M31,34.91,34.4,39a2.74,2.74,0,0,0,1.83,1l4.89-.13s3.82-.5,1.76-2.35L40,35.24"/><path class="cls-1" d="M10.78,11s.65-2,2.35-2,2,.13,2.28.33l3.52,4.51"/></svg>