<?xml version="1.0" encoding="utf-8"?>
<!-- Generator: Adobe Illustrator 21.0.0, SVG Export Plug-In . SVG Version: 6.00 Build 0)  -->
<svg version="1.1" id="Capa_1" xmlns="http://www.w3.org/2000/svg" xmlns:xlink="http://www.w3.org/1999/xlink" x="0px" y="0px"
	 viewBox="0 0 48 48" style="enable-background:new 0 0 48 48;" xml:space="preserve">
<style type="text/css">
	.st0{fill:none;stroke:#FFFFFF;stroke-width:2;stroke-miterlimit:10;}
</style>
<title>Mesa de trabajo 28 copia</title>
<path class="st0" d="M22.5,18.6c-1.5-3.4-4.2-3.8-4.2-3.8l-3.1-0.3c-1-0.3-1.9-0.7-2.7-1.3c-0.5-0.3-1.2-0.6-1.8-0.6l-1.9,0l2,4.5
	c0,0,0.4,1.2,2.3,1.2"/>
<path class="st0" d="M30.4,26c-0.5-2.5-4.4-3.6-4.4-3.6L17.5,22c0,0,0.5,3.8,4,3.9"/>
<path class="st0" d="M26.5,22.2c-0.5-2.5-4.4-3.6-4.4-3.6l-8.5-0.4c0,0,0.5,3.8,4,3.9"/>
<path class="st0" d="M38.1,33.7c-0.5-2.5-4.4-3.6-4.4-3.6l-8.4-0.4c0,0,0.5,3.8,4,3.9L38.1,33.7z"/>
<path class="st0" d="M34.2,29.9c-0.5-2.5-4.4-3.6-4.4-3.6l-8.5-0.4c0,0,0.5,3.8,4,3.9"/>
<path class="st0" d="M28.8,33.6l3,3.7c0.4,0.5,1,0.8,1.6,0.9l4.4-0.1c0,0,3.4-0.4,1.6-2.1l-2.6-2"/>
<path class="st0" d="M10.8,12.2c0,0,0.6-1.8,2.1-1.8s1.8,0.1,2,0.3l3.1,4"/>
</svg>
