<?xml version="1.0" encoding="utf-8"?>
<!-- Generator: Adobe Illustrator 21.0.0, SVG Export Plug-In . SVG Version: 6.00 Build 0)  -->
<svg version="1.1" id="Capa_1" xmlns="http://www.w3.org/2000/svg" xmlns:xlink="http://www.w3.org/1999/xlink" x="0px" y="0px"
	 viewBox="0 0 48 48" style="enable-background:new 0 0 48 48;" xml:space="preserve">
<style type="text/css">
	.st0{fill:none;stroke:#8CC63F;stroke-width:2.03;stroke-miterlimit:10;}
</style>
<title>Mesa de trabajo 1</title>
<path class="st0" d="M22.9,10.4c0,0,4-9.8,13.3-2.7c0,0,8.6,8.2-2.8,26.7c0,0-8.7,13.3-21.7,6.4c0,0-7.9-3.7-4.7-15.5
	c0,0,2.2-6,8.3-7.4C15.3,18,20,17,22.9,10.4z"/>
<path class="st0" d="M10.7,30.1c0.4,1.2,1.2,2.2,2.3,2.8"/>
<path class="st0" d="M22,31c0,0,1.8,2.6,4.1,2.5"/>
<path class="st0" d="M22,20c0,0,1.1,3.1,3.4,3"/>
</svg>
