<svg id="Capa_1" data-name="Capa 1" xmlns="http://www.w3.org/2000/svg" viewBox="0 0 48 48"><defs><style>.cls-1{fill:none;stroke:#000;stroke-miterlimit:10;stroke-width:2px;}</style></defs><title>Mesa de trabajo 13</title><path class="cls-1" d="M40.5,16.85c0-4.18-3.67-7.56-8.19-7.56H32.2a8.11,8.11,0,0,0-7.88-5.55A8.11,8.11,0,0,0,16.43,9.3h-.12c-4.52,0-8.19,3.39-8.19,7.56A7.67,7.67,0,0,0,14,24.1V40s8-4.39,21,0V24A7.63,7.63,0,0,0,40.5,16.85Z"/><line class="cls-1" x1="19" y1="38" x2="19" y2="29"/><line class="cls-1" x1="25" y1="38" x2="25" y2="29"/><line class="cls-1" x1="30" y1="38" x2="30" y2="29"/></svg>