<?xml version="1.0" encoding="utf-8"?>
<!-- Generator: Adobe Illustrator 21.0.0, SVG Export Plug-In . SVG Version: 6.00 Build 0)  -->
<svg version="1.1" id="Capa_1" xmlns="http://www.w3.org/2000/svg" xmlns:xlink="http://www.w3.org/1999/xlink" x="0px" y="0px"
	 viewBox="0 0 48 48" style="enable-background:new 0 0 48 48;" xml:space="preserve">
<style type="text/css">
	.st0{fill:none;stroke:#8CC63F;stroke-width:2;stroke-miterlimit:10;}
</style>
<title>Mesa de trabajo 13</title>
<path class="st0" d="M40.5,16.9c0-4.2-3.7-7.6-8.2-7.6h-0.1c-1.1-3.4-4.3-5.6-7.9-5.6c-3.6-0.1-6.8,2.2-7.9,5.6h-0.1
	c-4.5,0-8.2,3.4-8.2,7.6c0.1,3.5,2.5,6.4,5.9,7.2V40c0,0,8-4.4,21,0V24C38.2,23.1,40.4,20.2,40.5,16.9z"/>
<line class="st0" x1="19" y1="38" x2="19" y2="29"/>
<line class="st0" x1="25" y1="38" x2="25" y2="29"/>
<line class="st0" x1="30" y1="38" x2="30" y2="29"/>
</svg>
