<svg id="Capa_1" data-name="Capa 1" xmlns="http://www.w3.org/2000/svg" viewBox="0 0 48 48"><defs><style>.cls-1{fill:none;stroke:#000;stroke-miterlimit:10;stroke-width:2px;}</style></defs><title>Mesa de trabajo 2</title><path class="cls-1" d="M19.35,39.67s6-6.19,10.38-6c0,0,13.78,0,13.71-14.68,0,0-.13-9-8.79-7.57,0,0-12.45,2.17-12.31,16.2a24.29,24.29,0,0,1-1.93,9.94l-2.79,6"/><path class="cls-1" d="M36,17.88a37.46,37.46,0,0,0-8.53,8.75c-5.68,7.76-6,10.81-6,10.81"/><path class="cls-1" d="M24.54,18.86a17.12,17.12,0,0,0-7-12.1c-9.06-5.35-10.92,4-10.92,4-3,16.31,6.74,19.11,6.74,19.11,4.67,1.65,5.83,10.3,5.83,10.3"/><path class="cls-1" d="M19.83,37.81S20.3,28,18.12,20.92A28.91,28.91,0,0,0,14,12.34"/></svg>