<svg id="Capa_1" data-name="Capa 1" xmlns="http://www.w3.org/2000/svg" viewBox="0 0 48 48"><defs><style>.cls-1{fill:none;stroke:#fff;stroke-linejoin:round;stroke-width:2px;}</style></defs><title>Mesa de trabajo 30 copia</title><rect width="48" height="48"/><path class="cls-1" d="M7.64,40.78a7.12,7.12,0,0,1-1.39-2.24c-1.13-2.77-1.12-8,7.17-9.46A13.59,13.59,0,0,0,20.5,26,35.89,35.89,0,0,0,30,11.75a12.7,12.7,0,0,1-2.85,12L22.48,28.4a11.86,11.86,0,0,0-3.23,6.1s-.38,10.63-9.59,7.56A4.6,4.6,0,0,1,7.64,40.78Z"/><path class="cls-1" d="M30.75,14.33a26.68,26.68,0,0,0,7.17-8.08S39.08,8.75,34,17.08"/><path class="cls-1" d="M30,18.25s6.42-3.08,10.17-1.92c0,0-11.69,5.69-12.73,7.1"/></svg>