<?xml version="1.0" encoding="utf-8"?>
<!-- Generator: Adobe Illustrator 21.0.0, SVG Export Plug-In . SVG Version: 6.00 Build 0)  -->
<svg version="1.1" id="Layer_1" xmlns:svg="http://www.w3.org/2000/svg"
	 xmlns="http://www.w3.org/2000/svg" xmlns:xlink="http://www.w3.org/1999/xlink" x="0px" y="0px" viewBox="0 0 263 293.3"
	 style="enable-background:new 0 0 263 293.3;" xml:space="preserve">
<style type="text/css">
	.st0{fill:#FFFFFF;}
</style>
<path id="background" class="st0" d="M63.8,41.8C68.9,39.9,81.5,37,99,43c19.5-1.5,25.5-4.5,43-7.5s45.5-2.5,66.5,12s41,15,45,57.5
	s-3.5,57.5-8,67s-58,23.5-67.5,27s-47.5,11.5-57,9s-70.5-13-79-19.5s-33.5-60-31.5-69s14.5-51,24-59S55.1,45.1,63.8,41.8z"/>
<path id="foreground" d="M121.7,1.3c-5.6,0.1-11.5,2-15.7,5.6c-7.5,6.5-15,13.2-14.8,22s5.2,13.8,5.2,13.8s3.4,2.6,0,5.2
	c-3.4,2.6-43.3,28-41.2,80.4c0,0,1,13.6-0.5,28.2c-1.1,10.4,2.5,23.1,4.7,29.4c0.1,0.1,1.1,2.7-1.2,1.1
	c-10.8-6.8-19.7-16.9-27.1-29.6c-6.8-12.3-10.7-26.6-10.7-41.8C20.5,83.5,38,55.4,63.7,41C28.4,50.7,2.3,83.8,2.3,123.2
	c0,3,0.1,6,0.4,8.9c0.3,6.8,1,17.6,2.9,21.9c2.9,6.5,2.6,20.5,2.6,22.8c0,2.3,0.8,79.1,46.2,78.9c0,0,21.6,0.5,21.8-8.3
	c0.1-7.8-2.1-8.6-4.1-13.1c-1.9-4.3-3.4-4.5-2.3-18.3c0,0,0.1-2.8,1.1-2.8s13.7,37.6,30,57.3c16.3,19.7,32.7,21.8,45.1,21.8
	c0,0,23.3,0,23.3-11.7c0-11.7-10.6-7-10.6-44.1c0-37.1,17.9-35.3,20-26.2c2.1,9.1,3.9,16.3,0.3,40.7c-3.6,24.4,6.2,27.2,15.3,27.2
	s56.8,1.5,65.1-134.9c0,0,1-22-6.2-41c0,0,3.1,36.3-19.5,55.8s-35.5,16.6-35.5,16.6s-10.9-0.8-15.3,4.7c-4.4,5.4-3.6,9.3-13,6.5
	c-9.3-2.9-9.4-5.2-17.9-4.1s-13.7,2.1-17.1-4.9c-3.4-7-7.1-11.5-14.1-12.8c-7-1.3-37.8-15.9-37-57.2c0.8-38.4,18.2-51.6,18.2-51.6
	s2.9-3.1,5.7-1.8c2.9,1.3,7.5,1.6,13-3.4s9.1-8.8,18.9-12.2c0,0,6.8-1,6.5-7.8c-0.3-6.7-5.7-21.5-12.7-25.9
	C130.2,2.1,126.1,1.2,121.7,1.3z M145.3,187c1.6-0.1,3.8,1,6.2,1.9c3.5,1.3,11.4,0.7,14.5,0.5c3.1-0.2,5.2,1.1,2.7,4.1
	c-3.4,4.1-7.5,3.9-12.7,4.3s-10.7-4.7-10.7-4.7c-0.3-0.5-2.8-3.2-1.6-5.1C144,187.3,144.6,187,145.3,187z M118.8,104.2
	c6-7.4,9.3-8.3,14.5-8.3c5.2,0,12.4,3.3,14.5,11.4c2.3,8.8,3.5,10.2-4.9,20c-6,7.1-16.9,22.5-27.8,12.7
	C104.3,130.2,108.3,117.1,118.8,104.2z M216.2,117.9c-3.5-8.8-6.4-10.7-11.4-12.3c-4.9-1.6-12.8-0.5-17.3,6.5
	c-4.9,7.7-6.6,8.4-1.5,20.4c3.6,8.5,9.5,26.8,22.9,20.6C222.3,147.1,222.4,133.4,216.2,117.9z M158.8,175.8c2.8-4.3,9.2-5.8,13-5.9
	c4.9-0.2,4.8-4.4,4.8-4.4s0.3-4.3-17.4-6c-17.7-1.7-18.2,2.8-18.2,2.8s-0.8,4.2,4,5.2c3.7,0.8,9.7,3.5,11.7,8.2
	C157.1,176.9,158.2,176.9,158.8,175.8z M242.4,69.4c-3,1-7.6,0.7-12.5-4.8s-8-9.8-17.5-14.2c0,0-6.6-1.8-5.6-8.5s8.1-20.8,15.5-24.4
	c7.4-3.6,20-1.4,26.8,5.9c6.8,7.3,13.5,14.8,12.3,23.6c-1.2,8.7-6.7,13.1-6.7,13.1l0.1,0C252.1,63.5,242.4,69.4,242.4,69.4z"/>
</svg>
