<?xml version="1.0" encoding="utf-8"?>
<!-- Generator: Adobe Illustrator 21.1.0, SVG Export Plug-In . SVG Version: 6.00 Build 0)  -->
<svg version="1.1" id="Layer_1" xmlns="http://www.w3.org/2000/svg" xmlns:xlink="http://www.w3.org/1999/xlink" x="0px" y="0px"
	 viewBox="0 0 50 50" style="enable-background:new 0 0 50 50;" xml:space="preserve">
<style type="text/css">
	.st0{fill:none;stroke:#FFFFFF;stroke-linecap:round;stroke-linejoin:round;stroke-miterlimit:10;}
	.st1{fill:none;stroke:#8CC63F;stroke-width:2;stroke-linecap:round;stroke-linejoin:round;stroke-miterlimit:10;}
	.st2{fill:#FFFFFF;stroke:#FFFFFF;stroke-linecap:round;stroke-linejoin:round;stroke-miterlimit:10;}
	.st3{opacity:0.5;}
	.st4{opacity:0.25;}
	.st5{fill:#FFFFFF;}
</style>
<g>
	<path class="st0" d="M13.1,5.7l-0.6,13.2c0,0-0.1,3.1,2.7,3.1l-1.1,18.9c0,0-0.5,3.4,2.9,3.4h0.2c3.4,0,2.9-3.4,2.9-3.4L19,22
		c2.8,0,2.7-3.1,2.7-3.1L21.1,5.7"/>
	<line class="st0" x1="15.5" y1="6.3" x2="15.5" y2="17.3"/>
	<line class="st0" x1="18.5" y1="6.3" x2="18.5" y2="17.3"/>
	<path class="st0" d="M37.5,6.3v37c0,0-4.1,0.4-4.1-3.4l0.9-11.6c0,0-2.8,0.1-2.8-3.4V10.3C31.5,10.3,32.1,6.3,37.5,6.3z"/>
</g>
</svg>
