<?xml version="1.0" encoding="utf-8"?>
<!-- Generator: Adobe Illustrator 21.1.0, SVG Export Plug-In . SVG Version: 6.00 Build 0)  -->
<svg version="1.1" id="Layer_1" xmlns="http://www.w3.org/2000/svg" xmlns:xlink="http://www.w3.org/1999/xlink" x="0px" y="0px"
	 viewBox="0 0 50 50" style="enable-background:new 0 0 50 50;" xml:space="preserve">
<style type="text/css">
	.st0{fill:none;stroke:#FFFFFF;stroke-linecap:round;stroke-linejoin:round;stroke-miterlimit:10;}
	.st1{fill:none;stroke:#8CC63F;stroke-width:2;stroke-linecap:round;stroke-linejoin:round;stroke-miterlimit:10;}
	.st2{fill:#8CC63F;stroke:#8CC63F;stroke-width:2;stroke-linecap:round;stroke-linejoin:round;stroke-miterlimit:10;}
	.st3{opacity:0.5;}
	.st4{opacity:0.25;}
	.st5{fill:#FFFFFF;}
</style>
<g>
	<path class="st0" d="M37.5,8.9c8.8,7.2,0.8,14.9,0.8,14.9C35.7,27,31.2,28,31.2,28c-3,1-4.5,3.1-4.5,3.1l-2.7,3.3
		c-0.9,1.2-2,0.3-2,0.3l-1.8-1.5l-5.7,6.9c1.2,3.2-1.5,3.5-1.5,3.5c-1.3,0-2-1.2-2.4-2c-0.9-0.2-2.2-0.6-2.4-1.9
		c0,0-0.2-2.7,3.2-2.1l5.7-6.9l-1.8-1.5c0,0-1-0.8-0.1-2l2.7-3.3c0,0,1.8-1.8,2.1-5c0,0,0.1-4.6,2.6-7.7
		C22.8,11.2,28.8,1.8,37.5,8.9"/>
</g>
</svg>
