<?xml version="1.0" encoding="utf-8"?>
<!-- Generator: Adobe Illustrator 21.1.0, SVG Export Plug-In . SVG Version: 6.00 Build 0)  -->
<svg version="1.1" id="Layer_1" xmlns="http://www.w3.org/2000/svg" xmlns:xlink="http://www.w3.org/1999/xlink" x="0px" y="0px"
	 viewBox="0 0 50 50" style="enable-background:new 0 0 50 50;" xml:space="preserve">
<style type="text/css">
	.st0{fill:none;stroke:#000000;stroke-width:2;stroke-linecap:round;stroke-linejoin:round;stroke-miterlimit:10;}
	.st1{stroke:#000000;stroke-width:2;stroke-linecap:round;stroke-linejoin:round;stroke-miterlimit:10;}
	.st2{opacity:0.5;}
	.st3{opacity:0.25;}
</style>
<g>
	<g>
		<line class="st0" x1="8" y1="32.4" x2="13.4" y2="32.4"/>
		<line class="st0" x1="36.3" y1="17.3" x2="41.6" y2="17.3"/>
		<path class="st0" d="M4.5,35.7c0,0,3.9,0.9,11.9,0.9s12.2-2.4,17.6-2.4s11.5,1.5,11.5,1.5v0V14.9c0,0-3.7-1.5-9.1-1.5
			s-12,2.4-19.9,2.4S4.5,14.9,4.5,14.9V35.7L4.5,35.7z"/>
	</g>
	<g>
		<line class="st0" x1="20.7" y1="23.9" x2="26.1" y2="23.9"/>
		<line class="st0" x1="20.7" y1="26.7" x2="26.1" y2="26.7"/>
		<path class="st0" d="M29.3,28.1c-0.6,1.5-1.7,2.4-2.9,2.4c-1.9,0-3.5-2.5-3.5-5.6s1.6-5.6,3.5-5.6c1.2,0,2.2,0.9,2.8,2.3"/>
	</g>
</g>
</svg>
