<?xml version="1.0" encoding="utf-8"?>
<!-- Generator: Adobe Illustrator 21.1.0, SVG Export Plug-In . SVG Version: 6.00 Build 0)  -->
<svg version="1.1" id="Layer_1" xmlns="http://www.w3.org/2000/svg" xmlns:xlink="http://www.w3.org/1999/xlink" x="0px" y="0px"
	 viewBox="0 0 50 50" style="enable-background:new 0 0 50 50;" xml:space="preserve">
<style type="text/css">
	.st0{fill:none;stroke:#000000;stroke-width:2;stroke-linecap:round;stroke-linejoin:round;stroke-miterlimit:10;}
	.st1{stroke:#000000;stroke-width:2;stroke-linecap:round;stroke-linejoin:round;stroke-miterlimit:10;}
	.st2{opacity:0.5;}
	.st3{opacity:0.25;}
</style>
<g>
	<g>
		<path class="st0" d="M30.3,11.8c-0.5-2.1-2.4-3.6-4.6-3.6c-2.6,0-4.7,2.1-4.7,4.8c0,2.1,1.4,3.9,3.3,4.5"/>
	</g>
	<path class="st0" d="M30.8,32.6l10.7-3c1.3-0.4,2.7,0.6,2.7,2v0c0,0.7-0.4,1.4-1,1.8c-3.2,2.1-13.1,8.4-17.2,8.4c-4.9,0-9.5-6-13-6
		s-7.2,2.2-7.2,2.2V26.8c0,0,6-1,10.1-1s6.6,4,10,4c0.9,0,1.2,0,1.8-0.1c1.3-0.1,2.5,0.7,2.9,1.9v0c0.4,1.3,0.2,4.1-4.7,4.1
		c-3.2,0-6.4-2.6-6.4-2.6"/>
	<ellipse class="st0" cx="30.6" cy="18.2" rx="6.4" ry="6.4"/>
</g>
</svg>
