<?xml version="1.0" encoding="utf-8"?>
<!-- Generator: Adobe Illustrator 21.1.0, SVG Export Plug-In . SVG Version: 6.00 Build 0)  -->
<svg version="1.1" id="Layer_1" xmlns="http://www.w3.org/2000/svg" xmlns:xlink="http://www.w3.org/1999/xlink" x="0px" y="0px"
	 viewBox="0 0 50 50" style="enable-background:new 0 0 50 50;" xml:space="preserve">
<style type="text/css">
	.st0{fill:none;stroke:#000000;stroke-width:2;stroke-linecap:round;stroke-linejoin:round;stroke-miterlimit:10;}
	.st1{stroke:#000000;stroke-width:2;stroke-linecap:round;stroke-linejoin:round;stroke-miterlimit:10;}
	.st2{opacity:0.5;}
	.st3{opacity:0.25;}
</style>
<g>
	<path class="st0" d="M34.5,23.6C35.6,30.3,30,36,23.3,34.9c-4-0.7-7.3-3.9-7.9-8c-1.1-6.7,4.6-12.3,11.2-11.2
		C30.6,16.3,33.9,19.6,34.5,23.6z"/>
	<g>
		<path class="st0" d="M26.3,7.6l2.4,3.1c0.4,0.5,1.1,0.8,1.8,0.6l3.7-1.2c1-0.3,2.1,0.4,2.1,1.5l0.1,3.9c0,0.7,0.4,1.3,1.1,1.5
			l3.7,1.3c1,0.3,1.4,1.6,0.8,2.5l-2.3,3.2c-0.4,0.6-0.4,1.3,0,1.9l2.3,3.2c0.6,0.9,0.2,2.1-0.8,2.5l-3.7,1.3
			c-0.6,0.2-1.1,0.8-1.1,1.5l-0.1,3.9c0,1.1-1.1,1.8-2.1,1.5l-3.7-1.2c-0.7-0.2-1.4,0-1.8,0.6l-2.4,3.1c-0.6,0.9-1.9,0.9-2.6,0
			l-2.4-3.1c-0.4-0.5-1.1-0.8-1.8-0.6l-3.7,1.2c-1,0.3-2.1-0.4-2.1-1.5l-0.1-3.9c0-0.7-0.4-1.3-1.1-1.5l-3.7-1.3
			c-1-0.3-1.4-1.6-0.8-2.5l2.3-3.2c0.4-0.6,0.4-1.3,0-1.9l-2.3-3.2c-0.6-0.9-0.2-2.1,0.8-2.5l3.7-1.3c0.6-0.2,1.1-0.8,1.1-1.5
			l0.1-3.9c0-1.1,1.1-1.8,2.1-1.5l3.7,1.2c0.7,0.2,1.4,0,1.8-0.6l2.4-3.1C24.4,6.7,25.6,6.7,26.3,7.6z"/>
	</g>
</g>
<polyline class="st0" points="19.1,25.2 23.5,29.7 23.5,29.7 30.9,22.3 "/>
</svg>
