<?xml version="1.0" encoding="utf-8"?>
<!-- Generator: Adobe Illustrator 21.1.0, SVG Export Plug-In . SVG Version: 6.00 Build 0)  -->
<svg version="1.1" id="Layer_1" xmlns="http://www.w3.org/2000/svg" xmlns:xlink="http://www.w3.org/1999/xlink" x="0px" y="0px"
	 viewBox="0 0 50 50" style="enable-background:new 0 0 50 50;" xml:space="preserve">
<style type="text/css">
	.st0{fill:none;stroke:#8CC63F;stroke-width:2;stroke-linecap:round;stroke-linejoin:round;stroke-miterlimit:10;}
	.st1{fill:#8CC63F;stroke:#8CC63F;stroke-width:2;stroke-linecap:round;stroke-linejoin:round;stroke-miterlimit:10;}
	.st2{opacity:0.5;}
	.st3{opacity:0.25;}
</style>
<g>
	<path d="M8.1,11V9.1l1.5-0.3v-2c0-1.6,0.3-2.7,0.8-3.3c0.5-0.7,1.4-1,2.7-1c0.5,0,1,0.1,1.6,0.3v2.2c-0.3-0.1-0.7-0.1-1.2-0.1
		c-0.2,0-0.4,0-0.6,0.1c-0.2,0.1-0.3,0.2-0.4,0.3c-0.1,0.1-0.2,0.3-0.2,0.5c0,0.2-0.1,0.4-0.1,0.6c0,0.2,0,0.5,0,0.8v1.6h2.3V11
		h-2.3v10.9H9.6V11H8.1z"/>
	<path d="M15.3,17.6V13c0-1.6,0.3-2.8,0.9-3.6c0.6-0.8,1.6-1.1,2.9-1.1c1.3,0,2.3,0.4,2.9,1.1c0.6,0.7,0.9,1.9,0.9,3.6v4.6
		c0,1.6-0.3,2.8-0.9,3.6s-1.6,1.1-2.9,1.1c-1.3,0-2.3-0.4-2.9-1.1C15.6,20.4,15.3,19.2,15.3,17.6z M18,17.9c0,0.7,0.1,1.3,0.2,1.6
		c0.2,0.3,0.5,0.5,0.9,0.5c0.2,0,0.4,0,0.5-0.1c0.1-0.1,0.3-0.2,0.3-0.3c0.1-0.1,0.1-0.3,0.2-0.5c0-0.2,0.1-0.4,0.1-0.6s0-0.4,0-0.7
		v-5.1c0-0.3,0-0.5,0-0.7c0-0.2,0-0.4-0.1-0.6c0-0.2-0.1-0.4-0.2-0.5c-0.1-0.1-0.2-0.2-0.3-0.3c-0.1-0.1-0.3-0.1-0.5-0.1
		c-0.5,0-0.8,0.2-0.9,0.5C18.1,11.5,18,12,18,12.8V17.9z"/>
	<path d="M24.3,17.6V13c0-1.6,0.3-2.8,0.9-3.6c0.6-0.8,1.6-1.1,2.9-1.1c1.3,0,2.3,0.4,2.9,1.1c0.6,0.7,0.9,1.9,0.9,3.6v4.6
		c0,1.6-0.3,2.8-0.9,3.6s-1.6,1.1-2.9,1.1c-1.3,0-2.3-0.4-2.9-1.1C24.6,20.4,24.3,19.2,24.3,17.6z M27,17.9c0,0.7,0.1,1.3,0.2,1.6
		c0.2,0.3,0.5,0.5,0.9,0.5c0.2,0,0.4,0,0.5-0.1c0.1-0.1,0.3-0.2,0.3-0.3c0.1-0.1,0.1-0.3,0.2-0.5c0-0.2,0.1-0.4,0.1-0.6
		c0-0.2,0-0.4,0-0.7v-5.1c0-0.3,0-0.5,0-0.7c0-0.2,0-0.4-0.1-0.6c0-0.2-0.1-0.4-0.2-0.5c-0.1-0.1-0.2-0.2-0.3-0.3
		c-0.1-0.1-0.3-0.1-0.5-0.1c-0.5,0-0.8,0.2-0.9,0.5C27,11.5,27,12,27,12.8V17.9z"/>
	<path d="M33.3,18v-5.3c0-1.5,0.2-2.6,0.7-3.3s1.2-1,2.2-1c0.5,0,0.9,0.1,1.3,0.3c0.4,0.2,0.6,0.4,0.8,0.7V2.8h2.5v19.1h-1.9
		l-0.3-1.2c-0.7,1-1.5,1.4-2.6,1.4c-1,0-1.8-0.3-2.1-1C33.5,20.5,33.3,19.4,33.3,18z M35.9,18.3c0,0.6,0.1,1,0.2,1.2
		c0.2,0.2,0.4,0.3,0.8,0.3c0.2,0,0.4-0.1,0.7-0.2c0.2-0.1,0.5-0.3,0.6-0.6v-7.6c-0.4-0.5-0.8-0.7-1.2-0.7c-0.7,0-1.1,0.5-1.1,1.5
		V18.3z"/>
	<path d="M8.6,47.5V29.9h1.8l0.2,1.2c0.8-1,1.7-1.5,2.7-1.5c0.5,0,0.8,0.1,1.2,0.2c0.3,0.1,0.6,0.3,0.9,0.6c0.3,0.3,0.4,0.7,0.6,1.2
		C16,32,16,32.7,16,33.4v5.8c0,0.5,0,1-0.1,1.3c0,0.4-0.1,0.7-0.2,1.1c-0.1,0.4-0.3,0.7-0.5,0.9c-0.2,0.2-0.5,0.4-0.8,0.5
		c-0.3,0.1-0.8,0.2-1.2,0.2c-0.8,0-1.5-0.3-2.1-0.9v5.2H8.6z M11.1,40.1c0.2,0.3,0.4,0.4,0.6,0.6c0.2,0.1,0.5,0.2,0.7,0.2
		c0.4,0,0.6-0.1,0.8-0.3c0.1-0.2,0.2-0.6,0.2-1.2v-6c0-1-0.4-1.5-1.1-1.5c-0.5,0-0.9,0.2-1.2,0.7V40.1z"/>
	<path d="M17.6,43.2V29.9h1.8l0.3,1.8c0.3-0.8,0.7-1.4,1.2-1.7c0.5-0.3,1.1-0.5,1.8-0.5v2.7c-0.6,0-1.1,0.1-1.5,0.3
		c-0.4,0.2-0.8,0.6-1.1,1.1v9.5H17.6z"/>
	<path d="M23.2,26.9c0-0.4,0.1-0.8,0.4-1c0.3-0.3,0.6-0.4,1-0.4c0.4,0,0.7,0.1,1,0.4c0.3,0.3,0.4,0.6,0.4,0.9c0,0.4-0.1,0.7-0.4,1
		c-0.3,0.3-0.6,0.4-1,0.4c-0.4,0-0.7-0.1-1-0.4C23.3,27.6,23.2,27.3,23.2,26.9z M23.2,43.2V29.9h2.5v13.2H23.2z"/>
	<path d="M27.8,43.2V29.9h1.8l0.3,1.3c0.2-0.2,0.3-0.4,0.5-0.5s0.3-0.3,0.6-0.5s0.5-0.3,0.8-0.4c0.3-0.1,0.6-0.1,0.9-0.1
		c0.3,0,0.5,0,0.7,0.1s0.4,0.1,0.5,0.2c0.2,0.1,0.3,0.2,0.4,0.3c0.1,0.1,0.2,0.3,0.3,0.5c0.1,0.2,0.1,0.4,0.2,0.5
		c0,0.2,0.1,0.4,0.1,0.7c0,0.3,0,0.5,0,0.7s0,0.5,0,0.8v9.7h-2.5v-9.2c0-0.7-0.1-1.1-0.2-1.3s-0.3-0.3-0.7-0.3
		c-0.4,0-0.8,0.2-1.2,0.5v10.3H27.8z"/>
	<path d="M35.8,32.3v-1.9l1.5-0.3l0.3-3l2.2-0.5v3.4h2v2.4h-2V40c0,0.5,0.1,0.8,0.2,0.9c0.1,0.1,0.4,0.2,0.9,0.2
		c0.3,0,0.6-0.1,1-0.2v2.2c-0.7,0.2-1.4,0.3-2,0.3c-0.9,0-1.6-0.2-2-0.6c-0.4-0.4-0.6-1.2-0.6-2.4v-8.2H35.8z"/>
</g>
</svg>
