<?xml version="1.0" encoding="utf-8"?>
<!-- Generator: Adobe Illustrator 21.1.0, SVG Export Plug-In . SVG Version: 6.00 Build 0)  -->
<svg version="1.1" id="Layer_1" xmlns="http://www.w3.org/2000/svg" xmlns:xlink="http://www.w3.org/1999/xlink" x="0px" y="0px"
	 viewBox="0 0 50 50" style="enable-background:new 0 0 50 50;" xml:space="preserve">
<style type="text/css">
	.st0{fill:none;stroke:#000000;stroke-width:2;stroke-linecap:round;stroke-linejoin:round;stroke-miterlimit:10;}
	.st1{stroke:#000000;stroke-width:2;stroke-linecap:round;stroke-linejoin:round;stroke-miterlimit:10;}
	.st2{opacity:0.5;}
	.st3{opacity:0.25;}
</style>
<g>
	<path class="st0" d="M36.9,6.1c-3.8-1-6.8,6.3-6.8,6.3"/>
	<path class="st0" d="M36.9,6.1c-3.8-1-6.8,6.3-6.8,6.3"/>
	<path class="st0" d="M29.3,12.4c0,0,1.2-4-1.5-5.3"/>
	<path class="st0" d="M14.9,43.7c-2.8-1.3-1.5-5-1.5-5L20,17.9c1.4-4,4-5.4,6.1-5.9c0,0,4.6-0.6,6.3,3c1,2,1.6,4.9-0.7,8.5l-12,18.2
		C19.7,41.7,17.7,45,14.9,43.7"/>
</g>
</svg>
