<?xml version="1.0" encoding="utf-8"?>
<!-- Generator: Adobe Illustrator 21.1.0, SVG Export Plug-In . SVG Version: 6.00 Build 0)  -->
<svg version="1.1" id="Layer_1" xmlns="http://www.w3.org/2000/svg" xmlns:xlink="http://www.w3.org/1999/xlink" x="0px" y="0px"
	 viewBox="0 0 50 50" style="enable-background:new 0 0 50 50;" xml:space="preserve">
<style type="text/css">
	.st0{fill:none;stroke:#8CC63F;stroke-width:2;stroke-linecap:round;stroke-linejoin:round;stroke-miterlimit:10;}
	.st1{fill:#8CC63F;stroke:#8CC63F;stroke-width:2;stroke-linecap:round;stroke-linejoin:round;stroke-miterlimit:10;}
	.st2{opacity:0.5;}
	.st3{opacity:0.25;}
	.st4{fill:#8CC63F;}
</style>
<g id="qFfLlW_5_">
	<g>
		<path d="M24.6,13c0.2,0.1,0.4,0.2,0.6,0.3c0.7,0.5,0.9,1.2,1,2.1c0,0.3-0.1,0.6-0.4,0.7c-0.4,0.2-0.8,0.4-1.2,0.6
			c-0.2,0.1-0.4,0.3-0.5,0.5c-0.3,0.3-0.6,0.3-1,0.1c-0.1,0-0.1-0.1-0.2-0.1c-0.1,0.2-0.3,0.4-0.4,0.6c-0.6,1-1,2-1.2,3.1
			c-0.2,1.4,0,2.7,0.8,3.9c0.5,0.8,1.3,1.4,2.3,1.6c0.4,0.1,0.7,0.3,0.8,0.7c0.1,0.4,0.3,0.8,0.8,0.8c0.3,0,0.5,0,0.8-0.1
			c0.3-0.1,0.6,0,0.9,0.1c0.1,0.1,0.3,0.1,0.4,0.2c0.5,0.2,0.9,0.1,1.1-0.3c0.3-0.4,0.7-0.5,1.1-0.5c1,0,1.8-0.4,2.6-0.9
			c1.1-0.8,1.6-1.9,1.9-3.2c0.1-0.4,0.1-0.9,0.1-1.4c0-0.1,0.1-0.2,0.1-0.3c0.1,0.1,0.1,0.1,0.2,0.2c0.1,0.6,0.2,1.3,0.3,1.9
			c0.1,0.4,0.1,0.8,0.1,1.2c0,1.2-0.1,2.4-0.3,3.5c-0.3,1.2-0.6,2.5-1,3.7c-0.3,0.9-0.6,1.7-1.2,2.4c-0.2,0.3-0.5,0.5-0.9,0.7
			c-0.5,0.4-1.2,0.6-1.8,0.7c-0.8,0.1-1.4-0.5-1.4-1.3c0-0.6,0.2-1.3,0.2-1.9c0.1-0.7,0.1-1.5,0-2.2c0-0.1,0-0.1-0.1-0.2
			c-0.1-0.2-0.2-0.5-0.5-0.6c-0.3,0-0.5,0.2-0.7,0.4c-0.3,0.4-0.4,0.9-0.4,1.4c-0.1,1.1,0,2.1,0.4,3.1c0.1,0.3,0.2,0.6,0.4,0.9
			c0.3,0.6,0.1,1-0.5,1.2c-0.6,0.2-1.2,0.2-1.8,0.2c-0.6-0.1-1.1-0.2-1.6-0.4c-0.9-0.4-1.5-1.1-2-1.9c-0.6-1.1-1.1-2.2-1.7-3.4
			c-0.1-0.2-0.2-0.5-0.3-0.7c0,0-0.1,0-0.1,0c0.1,0.4,0.1,0.7,0.2,1.1c0.1,0.5,0.2,1,0.4,1.5c0.1,0.4-0.1,0.7-0.5,0.8
			c-1,0.3-1.9,0.2-2.8-0.4c-0.4-0.3-0.7-0.7-1-1.2c-0.6-1.1-1.1-2.4-1.3-3.6c-0.1-0.4,0-0.8,0-1.2c-0.1-0.6-0.2-1.3-0.2-1.9
			c0-0.4-0.1-0.7-0.1-1.1c0-0.3-0.1-0.5-0.1-0.8c0-1.2,0.2-2.3,0.7-3.5c0.7-1.7,2-3,3.6-3.8c0.1-0.1,0.2-0.1,0.4,0
			c-3,2.3-3.9,5.3-2.5,8.8c0.7,1.7,1.9,2.9,2.5,3c-0.1-0.3-0.1-0.5-0.2-0.8c-0.2-0.7-0.2-1.5-0.1-2.2c0.1-0.8,0.1-1.6,0.1-2.4
			c0-0.8,0.1-1.5,0.4-2.3c0.4-1.3,1.2-2.3,2.2-3.2c0.2-0.2,0.5-0.4,0.7-0.6c-0.1-0.2-0.2-0.4-0.3-0.6c-0.4-0.8-0.2-1.7,0.4-2.3
			c0.4-0.5,0.9-0.7,1.5-0.9C24.1,13,24.4,13,24.6,13z M25.9,28.3c0,0.4,0.5,0.8,1.2,0.9c0.4,0.1,0.9-0.3,1-0.6
			C27.4,28.5,26.7,28.4,25.9,28.3z"/>
		<path d="M35.5,16.5c0.1,1-1.1,2.1-1.9,2c-0.3,0-0.6-0.1-0.8-0.4c-0.3-0.4-0.6-0.6-1-0.8c-0.5-0.2-0.8-0.5-0.7-1.1
			c0.2-0.8,0.6-1.5,1.4-1.8c0.8-0.3,1.9,0,2.4,0.8C35.3,15.5,35.5,16,35.5,16.5z"/>
		<path d="M23.2,23.1c0-1.1,0.9-2.1,1.9-2.4c0.5-0.1,1.1,0.2,1.3,0.9c0.1,0.4,0.1,0.7,0.2,1.1c0,0.1,0,0.1-0.1,0.2
			c-0.3,0.4-0.6,0.8-1,1.2c-0.3,0.3-0.6,0.6-1.1,0.6c-0.5,0-1-0.3-1.1-0.8C23.3,23.7,23.2,23.4,23.2,23.1z"/>
		<path d="M32.3,23.8c0,0.6-0.1,1.1-0.5,1.5c-0.4,0.4-1.2,0.5-1.5,0.1c-0.2-0.3-0.4-0.6-0.5-0.9c-0.2-0.3-0.3-0.7-0.5-1.1
			c-0.2-0.3,0-0.5,0.1-0.7c0.1-0.3,0.3-0.6,0.5-0.8c0.3-0.4,0.8-0.4,1.2-0.2c0.8,0.3,1.1,0.9,1.3,1.7C32.2,23.4,32.2,23.7,32.3,23.8
			z"/>
		<path d="M25.8,26.4c0-0.2,0.2-0.5,0.5-0.5c0.5,0,1,0,1.4,0.1c0.2,0,0.4,0.1,0.6,0.2c0.3,0.1,0.4,0.4,0.4,0.6
			c-0.1,0.2-0.2,0.3-0.4,0.3c-0.3,0-0.6,0.1-0.9,0.4c-0.2,0.1-0.3,0.2-0.4-0.1c-0.2-0.2-0.5-0.4-0.8-0.5
			C26,26.7,25.8,26.7,25.8,26.4z"/>
	</g>
</g>
</svg>
