<?xml version="1.0" encoding="utf-8"?>
<!-- Generator: Adobe Illustrator 21.1.0, SVG Export Plug-In . SVG Version: 6.00 Build 0)  -->
<svg version="1.1" id="Layer_1" xmlns="http://www.w3.org/2000/svg" xmlns:xlink="http://www.w3.org/1999/xlink" x="0px" y="0px"
	 viewBox="0 0 50 50" style="enable-background:new 0 0 50 50;" xml:space="preserve">
<style type="text/css">
	.st0{fill:none;stroke:#8CC63F;stroke-width:2;stroke-linecap:round;stroke-linejoin:round;stroke-miterlimit:10;}
	.st1{fill:#8CC63F;stroke:#8CC63F;stroke-width:2;stroke-linecap:round;stroke-linejoin:round;stroke-miterlimit:10;}
	.st2{opacity:0.5;}
	.st3{opacity:0.25;}
</style>
<g>
	<path class="st0" d="M25.1,11.4c0,0,4-9.8,13.3-2.6c0,0,8.6,8.2-2.8,26.7c0,0-8.7,13.3-21.7,6.4c0,0-7.9-3.7-4.7-15.5
		c0,0,2.1-6,8.3-7.4C17.5,19,22.2,18,25.1,11.4z"/>
	<path class="st0" d="M12.9,31.1c0,0,0.5,1.8,2.3,2.8"/>
	<path class="st0" d="M24.3,32c0,0,1.8,2.6,4.1,2.5"/>
	<path class="st0" d="M24.3,21c0,0,1.1,3.1,3.4,3"/>
</g>
</svg>
