<?xml version="1.0" encoding="utf-8"?>
<!-- Generator: Adobe Illustrator 21.1.0, SVG Export Plug-In . SVG Version: 6.00 Build 0)  -->
<svg version="1.1" id="Layer_1" xmlns="http://www.w3.org/2000/svg" xmlns:xlink="http://www.w3.org/1999/xlink" x="0px" y="0px"
	 viewBox="0 0 50 50" style="enable-background:new 0 0 50 50;" xml:space="preserve">
<style type="text/css">
	.st0{fill:none;stroke:#8CC63F;stroke-width:2;stroke-linecap:round;stroke-linejoin:round;stroke-miterlimit:10;}
	.st1{fill:#8CC63F;stroke:#8CC63F;stroke-width:2;stroke-linecap:round;stroke-linejoin:round;stroke-miterlimit:10;}
	.st2{opacity:0.5;}
	.st3{opacity:0.25;}
</style>
<g>
	<path class="st0" d="M18.5,24.4c0,0,1.9,1.7,6,1.2c4.1-0.5,5.5,1.1,5.5,1.1"/>
	<path class="st0" d="M15.4,28.7c-6.2,0.8-9.2-2.5-9.2-2.5c-2.7-3.7,0.9-4.3,0.9-4.3s2.1-0.2,1.3-2.7c-0.8-2.5,1.5-2.8,1.5-2.8
		s1.8-0.4,1.5-2.1c-0.4-2.4,1.5-2.8,1.5-2.8s1.8-0.6,1.6-2.1c-0.2-2.1,2-2.3,2-2.3c6.5-0.5,8.2,9.8,8.2,9.8L25,18l0.7,2.9
		c0,0,0.1,0.9,0.8,1.5c0.4,0.3,1,0.5,1.9,0.4l4.6-0.6c0,0,10.2-2,11.9,4.3c0,0,0.5,2.1-1.5,2.6c-1.5,0.4-1.5,2.2-1.5,2.2
		s0.3,1.9-2.1,2.4c-1.6,0.3-1.4,2.1-1.4,2.1s0.5,2.3-2.1,2.3c-2.6,0-2.1,2.1-2.1,2.1s0.6,3.7-3.8,2.3c0,0-4.1-0.9-5.5-7.1l-1.1-4.9
		c0,0-0.2-1.6-1.4-2.4c-0.5-0.4-1.3-0.6-2.3-0.4l-4.5,0.8L15.4,28.7z"/>
	<path class="st0" d="M27.8,30.6c0,0-2.3-1.1-3.3-5.1c-1.1-3.9-3.1-4.7-3.1-4.7"/>
</g>
</svg>
