<?xml version="1.0" encoding="utf-8"?>
<!-- Generator: Adobe Illustrator 21.1.0, SVG Export Plug-In . SVG Version: 6.00 Build 0)  -->
<svg version="1.1" id="Layer_1" xmlns="http://www.w3.org/2000/svg" xmlns:xlink="http://www.w3.org/1999/xlink" x="0px" y="0px"
	 viewBox="0 0 110 50" style="enable-background:new 0 0 110 50;" xml:space="preserve">
<style type="text/css">
	.st0{fill:none;stroke:#8CC63F;stroke-width:2;stroke-linecap:round;stroke-linejoin:round;stroke-miterlimit:10;}
	.st1{fill:#8CC63F;stroke:#8CC63F;stroke-width:2;stroke-linecap:round;stroke-linejoin:round;stroke-miterlimit:10;}
	.st2{opacity:0.5;}
	.st3{opacity:0.25;}
</style>
<g>
	<g>
		<path class="st0" d="M8.8,43.2c0,0-0.2-16.6,11.1-21.5"/>
		<path class="st0" d="M9.9,35.1c0,0,26.2-2.9,21.9-28.4c0,0-3.1,4.2-10.9,6.2C20.9,13-1.2,17.6,9.9,35.1z"/>
	</g>
	<g class="st2">
		<path class="st0" d="M44.3,43.2c0,0-0.2-16.6,11.1-21.5"/>
		<path class="st0" d="M45.4,35.1c0,0,26.2-2.9,21.9-28.4c0,0-3.1,4.2-10.9,6.2C56.4,13,34.3,17.6,45.4,35.1z"/>
	</g>
	<g class="st3">
		<path class="st0" d="M79.8,43.2c0,0-0.2-16.6,11.1-21.5"/>
		<path class="st0" d="M80.9,35.1c0,0,26.2-2.9,21.9-28.4c0,0-3.1,4.2-10.9,6.2C91.9,13,69.8,17.6,80.9,35.1z"/>
	</g>
</g>
</svg>
