<?xml version="1.0" encoding="utf-8"?>
<!-- Generator: Adobe Illustrator 21.1.0, SVG Export Plug-In . SVG Version: 6.00 Build 0)  -->
<svg version="1.1" id="Layer_1" xmlns="http://www.w3.org/2000/svg" xmlns:xlink="http://www.w3.org/1999/xlink" x="0px" y="0px"
	 viewBox="0 0 50 50" style="enable-background:new 0 0 50 50;" xml:space="preserve">
<style type="text/css">
	.st0{fill:none;stroke:#8CC63F;stroke-width:2;stroke-linecap:round;stroke-linejoin:round;stroke-miterlimit:10;}
	.st1{fill:#8CC63F;stroke:#8CC63F;stroke-width:2;stroke-linecap:round;stroke-linejoin:round;stroke-miterlimit:10;}
	.st2{opacity:0.5;}
	.st3{opacity:0.25;}
</style>
<g>
	<path class="st0" d="M19.5,40.6c0,0,6.1-6.5,10.4-6.3c0,0,13.8,0,13.7-14.7c0,0-0.1-9-8.8-7.6c0,0-12.4,2.2-12.3,16.2
		c0,0,0.2,5.5-1.9,9.9l-2.8,6"/>
	<path class="st0" d="M36.2,18.5c-3.2,2.2-6.1,5.4-8.5,8.7c-5.7,7.8-8.2,13.4-8.2,13.4"/>
	<path class="st0" d="M24.7,19.4c-1-8.4-6.9-12-6.9-12c-9.1-5.3-10.9,4-10.9,4c-3,16.3,6.7,19.1,6.7,19.1c4.7,1.7,5.9,10.1,5.9,10.1
		"/>
	<path class="st0" d="M19.5,40.6c0,0,1-12-1.2-19.1c-0.9-3.1-2.3-6.1-4.1-8.6"/>
</g>
</svg>
