<?xml version="1.0" encoding="utf-8"?>
<!-- Generator: Adobe Illustrator 21.1.0, SVG Export Plug-In . SVG Version: 6.00 Build 0)  -->
<svg version="1.1" id="Layer_1" xmlns="http://www.w3.org/2000/svg" xmlns:xlink="http://www.w3.org/1999/xlink" x="0px" y="0px"
	 viewBox="0 0 50 50" style="enable-background:new 0 0 50 50;" xml:space="preserve">
<style type="text/css">
	.st0{fill:none;stroke:#FFFFFF;stroke-width:2;stroke-linecap:round;stroke-linejoin:round;stroke-miterlimit:10;}
	.st1{fill:#FFFFFF;stroke:#FFFFFF;stroke-width:2;stroke-linecap:round;stroke-linejoin:round;stroke-miterlimit:10;}
	.st2{opacity:0.5;}
	.st3{opacity:0.25;}
</style>
<g>
	<path class="st0" d="M43.3,25.4c0,9-6.6,14.7-14.7,14.7c-8.1,0-14.7-5.7-14.7-14.7H43.3z"/>
	<path class="st0" d="M32,21.7c0,0,3.8-4.9-2.2-7.2c0,0-4.7-1.9-1.9-6"/>
	<path class="st0" d="M25.8,23.1c0,0,3.8-4.9-2.2-7.2c0,0-4.7-1.9-1.9-6"/>
	<path class="st0" d="M15.4,32.4l-5.3,0c0,0-3.4,0.2-3.4-3.4v-0.2c0-3.6,3.5-3.4,3.5-3.4h3.8"/>
	<line class="st0" x1="16.7" y1="41.4" x2="40.7" y2="41.4"/>
</g>
</svg>
