<?xml version="1.0" encoding="utf-8"?>
<!-- Generator: Adobe Illustrator 21.1.0, SVG Export Plug-In . SVG Version: 6.00 Build 0)  -->
<svg version="1.1" id="Layer_1" xmlns="http://www.w3.org/2000/svg" xmlns:xlink="http://www.w3.org/1999/xlink" x="0px" y="0px"
	 viewBox="0 0 50 50" style="enable-background:new 0 0 50 50;" xml:space="preserve">
<style type="text/css">
	.st0{fill:none;stroke:#FFFFFF;stroke-width:2;stroke-linecap:round;stroke-linejoin:round;stroke-miterlimit:10;}
	.st1{fill:#FFFFFF;stroke:#FFFFFF;stroke-width:2;stroke-linecap:round;stroke-linejoin:round;stroke-miterlimit:10;}
	.st2{opacity:0.5;}
	.st3{opacity:0.25;}
</style>
<g>
	<line class="st0" x1="20.8" y1="41.8" x2="29.2" y2="41.8"/>
	<line class="st0" x1="22.1" y1="44.8" x2="27.9" y2="44.8"/>
	<line class="st0" x1="25" y1="7.3" x2="25" y2="4"/>
	<g>
		<line class="st0" x1="39.2" y1="14.4" x2="42" y2="12.8"/>
		<line class="st0" x1="10.8" y1="14.4" x2="8" y2="12.8"/>
	</g>
	<g>
		<line class="st0" x1="33.1" y1="8.7" x2="34.8" y2="5.9"/>
		<line class="st0" x1="16.9" y1="8.7" x2="15.2" y2="5.9"/>
	</g>
	<path class="st0" d="M25,10.8c6.7,0,12.1,5.4,12.1,12.1c0,5.5-6.1,10.1-7.1,12c-1.1,1.9-0.8,4-0.8,4h-8.4c0,0,0.3-2.1-0.8-4
		c-1-1.8-7.1-6.4-7.1-12C12.9,16.2,18.3,10.8,25,10.8z"/>
</g>
</svg>
