<?xml version="1.0" encoding="utf-8"?>
<!-- Generator: Adobe Illustrator 21.1.0, SVG Export Plug-In . SVG Version: 6.00 Build 0)  -->
<svg version="1.1" id="Layer_1" xmlns="http://www.w3.org/2000/svg" xmlns:xlink="http://www.w3.org/1999/xlink" x="0px" y="0px"
	 viewBox="0 0 50 50" style="enable-background:new 0 0 50 50;" xml:space="preserve">
<style type="text/css">
	.st0{fill:none;stroke:#FFFFFF;stroke-width:2;stroke-linecap:round;stroke-linejoin:round;stroke-miterlimit:10;}
	.st1{fill:#FFFFFF;stroke:#FFFFFF;stroke-width:2;stroke-linecap:round;stroke-linejoin:round;stroke-miterlimit:10;}
	.st2{opacity:0.5;}
	.st3{opacity:0.25;}
</style>
<g>
	<path class="st0" d="M41.2,20c0-4.2-3.7-7.6-8.2-7.6c0,0-0.1,0-0.1,0c-1-3.2-4.1-5.5-7.9-5.5s-6.9,2.4-7.9,5.5c0,0-0.1,0-0.1,0
		c-4.5,0-8.2,3.4-8.2,7.6c0,3.4,2.5,6.3,5.9,7.3v15.9c0,0,8-4.4,21,0v-16C38.9,26.1,41.2,23.3,41.2,20z"/>
	<line class="st0" x1="25" y1="41.1" x2="25" y2="32.1"/>
	<g>
		<line class="st0" x1="19.5" y1="41.6" x2="19.5" y2="32.1"/>
		<line class="st0" x1="30.5" y1="41.8" x2="30.5" y2="32.1"/>
	</g>
</g>
</svg>
