<?xml version="1.0" encoding="utf-8"?>
<!-- Generator: Adobe Illustrator 21.1.0, SVG Export Plug-In . SVG Version: 6.00 Build 0)  -->
<svg version="1.1" id="Layer_1" xmlns="http://www.w3.org/2000/svg" xmlns:xlink="http://www.w3.org/1999/xlink" x="0px" y="0px"
	 viewBox="0 0 50 50" style="enable-background:new 0 0 50 50;" xml:space="preserve">
<style type="text/css">
	.st0{fill:none;stroke:#FFFFFF;stroke-width:2;stroke-linecap:round;stroke-linejoin:round;stroke-miterlimit:10;}
	.st1{fill:#FFFFFF;stroke:#FFFFFF;stroke-width:2;stroke-linecap:round;stroke-linejoin:round;stroke-miterlimit:10;}
	.st2{opacity:0.5;}
	.st3{opacity:0.25;}
</style>
<g>
	<path class="st0" d="M39.7,25.1c0,9-6.6,14.7-14.7,14.7c-8.1,0-14.7-5.7-14.7-14.7H39.7z"/>
	<polyline class="st0" points="19,38.7 16.9,43.1 25.1,43.1 	"/>
	<polyline class="st0" points="30.9,38.7 33.1,43.1 25.1,43.1 	"/>
	<path class="st0" d="M25.4,21.4c0,0,3.8-4.9-2.2-7.2c0,0-4.7-1.9-1.9-6"/>
	<path class="st0" d="M19.2,22.8c0,0,3.8-4.9-2.2-7.2c0,0-4.7-1.9-1.9-6"/>
	<path class="st0" d="M31.2,20c0,0,3.8-4.9-2.2-7.2c0,0-4.7-1.9-1.9-6"/>
</g>
</svg>
