<?xml version="1.0" encoding="utf-8"?>
<!-- Generator: Adobe Illustrator 21.1.0, SVG Export Plug-In . SVG Version: 6.00 Build 0)  -->
<svg version="1.1" id="Layer_1" xmlns="http://www.w3.org/2000/svg" xmlns:xlink="http://www.w3.org/1999/xlink" x="0px" y="0px"
	 viewBox="0 0 50 50" style="enable-background:new 0 0 50 50;" xml:space="preserve">
<style type="text/css">
	.st0{fill:none;stroke:#FFFFFF;stroke-width:2;stroke-linecap:round;stroke-linejoin:round;stroke-miterlimit:10;}
	.st1{fill:#FFFFFF;stroke:#FFFFFF;stroke-width:2;stroke-linecap:round;stroke-linejoin:round;stroke-miterlimit:10;}
	.st2{opacity:0.5;}
	.st3{opacity:0.25;}
</style>
<g>
	<path class="st0" d="M9.7,41.3c0,0-0.8-0.8-1.4-2.2c-1.1-2.8-1.1-8,7.2-9.5c0,0,3.8-0.3,7.1-3.1c0,0,6.4-5.4,9.5-14.2
		c0,0,2.2,6.6-2.9,12L24.5,29c0,0-2.8,2.7-3.2,6.1c0,0-0.4,10.6-9.6,7.6C10.9,42.4,10.3,42,9.7,41.3z"/>
	<path class="st0" d="M32.5,15.1c0,0,4.9-3.4,7.5-8.3c0,0,1.3,2.2-3.8,10.6"/>
	<path class="st0" d="M32.1,19.1c0,0,6.4-3.3,10.2-2.2c0,0-11.7,5.7-12.7,7.1"/>
</g>
</svg>
